<svg xmlns="http://www.w3.org/2000/svg" version="1.1" xmlns:xlink="http://www.w3.org/1999/xlink"
  xmlns:svgjs="http://svgjs.dev/svgjs" width="1000" height="623" viewBox="0 0 1000 623">
  <g transform="matrix(1,0,0,1,-0.6060606060606233,0.2522267206477409)">
    <svg viewBox="0 0 396 247" data-background-color="#598373" preserveAspectRatio="xMidYMid meet"
      height="623" width="1000" xmlns="http://www.w3.org/2000/svg"
      xmlns:xlink="http://www.w3.org/1999/xlink">
      <g id="tight-bounds" transform="matrix(1,0,0,1,0.2400000000000091,-0.09999999999999432)">
        <svg viewBox="0 0 395.52 247.2" height="247.2" width="395.52">
          <g>
            <svg></svg>
          </g>
          <g>
            <svg viewBox="0 0 395.52 247.2" height="247.2" width="395.52">
              <g>
                <g>
                  <path
                    d="M384.643 0l-11.47 63.283h-54.582l-5.701 32.73-75.149 0 5.702-32.73h-54.187l11.47-63.283zM286.554 247.2h-75.149l16.725-96.013 75.149 0zM202.308 228.215l-3.164 17.798-167.7-17.798zM215.756 151.88l-3.164 17.798-167.7-17.798zM229.204 75.94l-3.164 17.798-167.701-17.798zM209.032 189.85l-3.164 17.798-167.7-17.798zM181.346 37.97l-2.769 17.798-167.7-17.798zM188.07 0l-3.164 17.798-167.305-17.798z"
                    fill="#e0d813" fill-rule="nonzero" stroke="none" stroke-width="1"
                    stroke-linecap="butt" stroke-linejoin="miter" stroke-miterlimit="10"
                    stroke-dasharray="" stroke-dashoffset="0" font-family="none" font-weight="none"
                    font-size="none" text-anchor="none" style="mix-blend-mode: normal"
                    data-fill-palette-color="tertiary"></path>
                </g>
              </g>
              <g transform="matrix(1,0,0,1,0,102.24500423800643)">
                <svg viewBox="0 0 395.52 42.709991523987114" height="42.709991523987114"
                  width="395.52">
                  <g>
                    <svg viewBox="0 0 395.52 42.709991523987114" height="42.709991523987114"
                      width="395.52">
                      <g>
                        <svg viewBox="0 0 395.52 42.709991523987114" height="42.709991523987114"
                          width="395.52">
                          <g>
                            <svg viewBox="0 0 395.52 42.709991523987114" height="42.709991523987114"
                              width="395.52">
                              <g id="textblocktransform">
                                <svg viewBox="0 0 395.52 42.709991523987114"
                                  height="42.709991523987114" width="395.52" id="textblock">
                                  <g>
                                    <svg viewBox="0 0 395.52 42.709991523987114"
                                      height="42.709991523987114" width="395.52">
                                      <g transform="matrix(1,0,0,1,0,0)">
                                        <svg width="395.52" viewBox="-9 -31.25 294.93 31.85"
                                          height="42.709991523987114" data-palette-color="#14d7b9">
                                          <path
                                            d="M38.25-31.25L36.8-23.25 29.9-23.25 25.85 0 16.35 0 20.4-23.25 13.55-23.25 15-31.25 38.25-31.25ZM15.2-2.4L14.8-0.15-6.4-2.4 15.2-2.4ZM16.9-12.05L16.5-9.8-4.7-12.05 16.9-12.05ZM17.75-16.85L17.35-14.6-3.85-16.85 17.75-16.85ZM18.6-21.65L18.2-19.4-3-21.65 18.6-21.65ZM16.05-7.25L15.65-5-5.55-7.25 16.05-7.25ZM12.55-26.45L12.2-24.2-9-26.45 12.55-26.45ZM13.4-31.25L13-29-8.15-31.25 13.4-31.25ZM65.15-15.55L64.3-10.75 56.85-10.75 56.25-7.35 65.5-7.35 64.2 0 46.55 0 51.15-26.45 68.75-26.45 66.4-18.95 58.25-18.95 57.65-15.55 65.15-15.55ZM45.3-2.4L44.9-0.15 23.7-2.4 45.3-2.4ZM47-12.05L46.6-9.8 25.4-12.05 47-12.05ZM47.85-16.85L47.45-14.6 26.25-16.85 47.85-16.85ZM48.7-21.65L48.3-19.4 27.1-21.65 48.7-21.65ZM49.5-26.45L49.15-24.2 27.95-26.45 49.5-26.45ZM46.15-7.25L45.75-5 24.55-7.25 46.15-7.25ZM96.9-8.05L96.1-0.55Q93.4 0.6 88.6 0.6 83.8 0.6 81.52-1.43 79.25-3.45 79.25-7.8L79.25-7.8Q79.25-9.75 79.85-13.2L79.85-13.2Q81.1-20.45 84.17-23.7 87.25-26.95 94-26.95L94-26.95Q98.85-26.95 100.65-25.85L100.65-25.85 98.1-18.9Q95.6-19.6 93.55-19.6 91.5-19.6 90.67-19.25 89.85-18.9 89.65-17.9L89.65-17.9 87.7-7.2Q88.75-6.95 91.32-6.95 93.9-6.95 96.9-8.05L96.9-8.05ZM58.15-12.05L78.1-12.05Q77.9-10.5 77.85-9.95L77.85-9.95 58.15-12.05ZM59.05-16.85L79.05-16.85 78.6-14.75 59.05-16.85ZM58.35-7.25L77.8-7.25Q77.8-6.45 78-5.15L78-5.15 58.35-7.25ZM61.05-21.65L80.8-21.65Q80.2-20.35 79.95-19.65L79.95-19.65 61.05-21.65ZM62.7-2.4L78.85-2.4Q79.45-1.2 80.15-0.55L80.15-0.55 62.7-2.4ZM67.75-26.45L85.15-26.45Q83.95-25.75 83.1-24.8L83.1-24.8 67.75-26.45ZM132.79 0L124.39 0 125.94-9.15 120.34-9.15 118.74 0 110.34 0 114.94-26.45 123.39-26.45 121.74-17.3 127.39-17.3 128.99-26.45 137.44-26.45 132.79 0ZM109.09-2.4L108.69-0.15 87.49-2.4 109.09-2.4ZM110.79-12.05L110.39-9.8 89.19-12.05 110.79-12.05ZM111.64-16.85L111.24-14.6 90.04-16.85 111.64-16.85ZM112.49-21.65L112.09-19.4 90.89-21.65 112.49-21.65ZM113.29-26.45L112.94-24.2 91.74-26.45 113.29-26.45ZM109.94-7.25L109.54-5 88.34-7.25 109.94-7.25ZM147.74-0.15L126.84-2.4 148.44-2.4 147.74-0.15ZM130.69-21.65L152.24-21.65Q151.94-20.85 151.59-19.4L151.59-19.4 130.69-21.65ZM150.99-15L150.99-15 150.99-14.6 129.79-16.85 151.09-16.85Q150.99-15.65 150.99-15ZM150.04-7.25L149.34-5.05 128.49-7.25 150.04-7.25ZM134.14-26.45L155.69-26.45Q154.34-25.45 153.64-24.35L153.64-24.35 134.14-26.45ZM131.74-12.05L151.44-12.05Q151.89-10.75 152.89-9.8L152.89-9.8 131.74-12.05ZM173.79-25.9L171.39-18.6Q167.99-19.4 165.59-19.4 163.19-19.4 162.04-19.25L162.04-19.25 161.79-17.8 164.29-17.5Q172.34-16.45 172.34-10.85L172.34-10.85Q172.34-10.2 172.04-8.43 171.74-6.65 171.04-5 170.34-3.35 169.27-2.33 168.19-1.3 167.17-0.68 166.14-0.05 164.54 0.2L164.54 0.2Q162.04 0.6 157.87 0.6 153.69 0.6 149.44-0.55L149.44-0.55 151.89-7.95Q155.79-6.85 158.72-6.85 161.64-6.85 162.84-7L162.84-7 163.09-8.6 159.94-8.95Q155.89-9.4 154.19-10.85 152.49-12.3 152.49-15L152.49-15Q152.49-16 152.74-17.5L152.74-17.5Q153.74-22.85 156.34-24.9 158.94-26.95 164.27-26.95 169.59-26.95 173.79-25.9L173.79-25.9ZM207.29 0L198.89 0 200.44-9.15 194.84-9.15 193.24 0 184.84 0 189.44-26.45 197.89-26.45 196.24-17.3 201.89-17.3 203.49-26.45 211.94-26.45 207.29 0ZM183.59-2.4L183.19-0.15 161.99-2.4 183.59-2.4ZM185.29-12.05L184.89-9.8 163.69-12.05 185.29-12.05ZM186.14-16.85L185.74-14.6 164.54-16.85 186.14-16.85ZM186.99-21.65L186.59-19.4 165.39-21.65 186.99-21.65ZM187.79-26.45L187.44-24.2 166.24-26.45 187.79-26.45ZM184.44-7.25L184.04-5 162.84-7.25 184.44-7.25ZM238.69-26.95L238.69-26.95Q244.09-26.95 246.39-24.88 248.69-22.8 248.69-18.4L248.69-18.4Q248.69-16.25 248.14-13.2L248.14-13.2Q246.89-6 243.74-2.7 240.59 0.6 233.84 0.6L233.84 0.6Q228.54 0.6 226.29-1.48 224.04-3.55 224.04-7.9L224.04-7.9Q224.04-10.15 224.59-13.2L224.59-13.2Q225.84-20.4 228.94-23.68 232.04-26.95 238.69-26.95ZM232.34-7L235.29-7Q236.74-7 237.46-7.35 238.19-7.7 238.44-8.9L238.44-8.9 240.34-19.35 237.29-19.35Q235.89-19.35 235.11-19 234.34-18.65 234.19-17.5L234.19-17.5 232.34-7ZM202.89-12.05L222.84-12.05Q222.64-10.5 222.59-9.95L222.59-9.95 202.89-12.05ZM203.79-16.85L223.79-16.85 223.34-14.75 203.79-16.85ZM203.09-7.25L222.54-7.25Q222.54-6.45 222.74-5.15L222.74-5.15 203.09-7.25ZM205.79-21.65L225.54-21.65Q224.94-20.35 224.69-19.65L224.69-19.65 205.79-21.65ZM207.44-2.4L223.59-2.4Q224.19-1.2 224.89-0.55L224.89-0.55 207.44-2.4ZM212.49-26.45L229.89-26.45Q228.69-25.75 227.84-24.8L227.84-24.8 212.49-26.45ZM275.73-6.2L275.73-6.2 270.88-6.2 269.78 0 261.38 0 265.98-26.45 278.68-26.45Q285.93-26.45 285.93-19.6L285.93-19.6Q285.93-16.5 285.03-13.9 284.13-11.3 283.08-9.8 282.03-8.3 280.11-7.25 278.18-6.2 275.73-6.2ZM276.23-14.4L276.83-17.8Q276.83-17.85 276.88-18.1L276.88-18.1Q276.88-19.15 274.73-19.15L274.73-19.15 273.13-19.15 272.08-12.95 273.63-12.95Q274.78-12.95 275.43-13.23 276.08-13.5 276.23-14.4L276.23-14.4ZM260.13-2.4L259.73-0.15 238.53-2.4 260.13-2.4ZM261.83-12.05L261.43-9.8 240.23-12.05 261.83-12.05ZM262.68-16.85L262.28-14.6 241.08-16.85 262.68-16.85ZM263.53-21.65L263.13-19.4 241.93-21.65 263.53-21.65ZM264.33-26.45L263.98-24.2 242.78-26.45 264.33-26.45ZM260.98-7.25L260.58-5 239.38-7.25 260.98-7.25Z"
                                            opacity="1" transform="matrix(1,0,0,1,0,0)"
                                            fill="#14d7b9" class="undefined-text-0"
                                            data-fill-palette-color="primary" id="text-0"></path>
                                        </svg>
                                      </g>
                                    </svg>
                                  </g>
                                </svg>
                              </g>
                            </svg>
                          </g>
                          <g></g>
                        </svg>
                      </g>
                    </svg>
                  </g>
                </svg>
              </g>
            </svg>
          </g>
          <defs></defs>
        </svg>
        <rect width="395.52" height="247.2" fill="none" stroke="none" visibility="hidden"></rect>
      </g>
    </svg>
  </g>
</svg>