<svg width="150" height="76" viewBox="0 0 150 76" fill="none" xmlns="http://www.w3.org/2000/svg">
<g clip-path="url(#clip0_3_32)">
<g clip-path="url(#clip1_3_32)">
<g clip-path="url(#clip2_3_32)">
<path d="M59.4661 -0.031189V22.915H55.3948V-0.031189H59.4661ZM59.4661 76.031H55.3948V53.0848H59.4661V76.031ZM51.3235 -0.031189V22.915H47.2752V-0.031189H51.3235ZM51.3235 76.031H47.2752V53.0848H51.3235V76.031ZM43.2039 -0.031189V22.915H39.1322V-0.031189H43.2039ZM43.2039 76.031H39.1322V53.0848H43.2039V76.031ZM67.6091 59.494H110.868V62.8051H67.6091V66.1162H110.868V69.4088H67.6091V72.7199H110.868V76.031H63.5378V53.0848H67.6091V59.494ZM63.5378 -0.031189H110.868V3.27989H67.6091V6.59097H110.868V9.88358H67.6091V13.1947H110.868V16.5057H67.6091V22.915H63.5378V-0.031189Z" fill="url(#paint0_linear_3_32)"/>
<g clip-path="url(#clip3_3_32)">
<g clip-path="url(#clip4_3_32)">
<g clip-path="url(#clip5_3_32)">
<g clip-path="url(#clip6_3_32)">
<g clip-path="url(#clip7_3_32)">
<g clip-path="url(#clip8_3_32)">
<path d="M5.23063 28.5737V47.4261H4.22152V28.5737H5.23063ZM3.2124 28.5737V47.4261H2.20902V28.5737H3.2124ZM1.19991 28.5737V47.4261H0.190796V28.5737H1.19991ZM7.24886 40.0493V43.3273H17.9707V44.148H7.24886V44.9687H17.9707V45.7847H7.24886V46.6054H17.9707V47.4261H6.23974V28.5737H17.9707V29.3944H7.24886V30.2151H17.9707V31.0311H7.24886V31.8518H17.9707V32.6725H7.24886V35.9505H12.7474V36.7712H7.24886V37.5919H12.7474V38.4079H7.24886V39.2286H12.7474V40.0493H7.24886ZM29.8106 35.9505H28.1134C27.3948 35.9505 26.8769 35.8013 26.5596 35.5029C26.2424 35.2014 26.0837 34.8034 26.0837 34.3092C26.0837 33.218 27.0871 32.6725 29.0939 32.6725C30.9783 32.6725 32.3964 32.8994 33.3482 33.3533L32.5398 33.8569C31.8861 33.6144 30.7375 33.4932 29.0939 33.4932C28.2912 33.4932 27.7522 33.5647 27.477 33.7077C27.2018 33.8506 27.0642 34.0512 27.0642 34.3092C27.0642 34.5703 27.1387 34.7724 27.2878 34.9154C27.4369 35.0584 27.7121 35.1299 28.1134 35.1299H29.8507C31.1121 35.1299 32.2493 35.3055 33.2622 35.6568C34.2751 36.0049 35.1065 36.4806 35.7563 37.0836C36.4099 37.6867 36.9107 38.3815 37.2585 39.168C37.6025 39.9514 37.7745 40.7922 37.7745 41.6906C37.7745 42.4181 37.6484 43.1082 37.3961 43.761C37.1438 44.4138 36.7635 45.0138 36.2551 45.5609C35.7468 46.1049 35.1352 46.5774 34.4204 46.9784C33.7056 47.3763 32.857 47.6872 31.8747 47.911C30.8885 48.1348 29.822 48.2468 28.6753 48.2468C26.875 48.2468 25.1874 48.0245 23.6125 47.58C22.0415 47.1354 20.7343 46.5152 19.6908 45.7194L20.4992 45.2298C21.451 45.9262 22.6436 46.4671 24.077 46.8525C25.5104 47.2349 27.0432 47.4261 28.6753 47.4261C29.9558 47.4261 31.1102 47.2769 32.1384 46.9784C33.1705 46.6769 34.0209 46.265 34.6899 45.7428C35.355 45.2174 35.8672 44.6097 36.2265 43.9195C36.5858 43.2294 36.7654 42.4865 36.7654 41.6906C36.7654 40.6337 36.5036 39.6793 35.9799 38.8276C35.4601 37.9727 34.665 37.2795 33.5947 36.7479C32.5283 36.2163 31.2669 35.9505 29.8106 35.9505ZM28.1134 36.7712H29.7131C31.6052 36.7712 33.0864 37.2422 34.1566 38.1841C35.2231 39.1229 35.7563 40.2918 35.7563 41.6906C35.7563 43.1082 35.1371 44.2817 33.8986 45.2112C32.6563 46.1407 30.9152 46.6054 28.6753 46.6054C27.1808 46.6054 25.7856 46.4391 24.4898 46.1065C23.194 45.7707 22.1161 45.2998 21.256 44.6936L22.0415 44.1807C22.806 44.6905 23.7693 45.0853 24.9313 45.365C26.0933 45.6448 27.3413 45.7847 28.6753 45.7847C30.6439 45.7847 32.148 45.4024 33.1877 44.6376C34.2312 43.8698 34.7529 42.8875 34.7529 41.6906C34.7529 40.5062 34.3153 39.527 33.4399 38.753C32.5684 37.9789 31.3204 37.5919 29.6959 37.5919H28.1134C26.7526 37.5919 25.7321 37.2873 25.0517 36.678C24.3713 36.0718 24.0311 35.2822 24.0311 34.3092C24.0311 33.3393 24.4516 32.5512 25.2925 31.9451C26.1372 31.3358 27.4044 31.0311 29.0939 31.0311C30.2788 31.0311 31.3797 31.143 32.3964 31.3668C33.417 31.5907 34.2579 31.9124 34.9192 32.3321L34.1222 32.831C32.9564 32.1782 31.2803 31.8518 29.0939 31.8518C27.6872 31.8518 26.659 32.0772 26.0092 32.5279C25.3594 32.9818 25.0345 33.5755 25.0345 34.3092C25.0345 35.0552 25.2753 35.6521 25.7569 36.0997C26.2385 36.5474 27.024 36.7712 28.1134 36.7712ZM28.1134 38.4079H29.6558C31.0165 38.4079 32.039 38.7157 32.7232 39.3312C33.4036 39.9467 33.7438 40.7332 33.7438 41.6906C33.7438 42.6605 33.3214 43.4486 32.4767 44.0548C31.6319 44.6641 30.3648 44.9687 28.6753 44.9687C27.4904 44.9687 26.3876 44.8568 25.367 44.633C24.3426 44.4091 23.4998 44.0874 22.8385 43.6677L23.6355 43.1688C24.8013 43.8216 26.4813 44.148 28.6753 44.148C30.0858 44.148 31.114 43.9226 31.76 43.4719C32.4098 43.018 32.7347 42.4243 32.7347 41.6906C32.7347 40.9539 32.492 40.3586 32.0065 39.9047C31.5211 39.454 30.7337 39.2286 29.6443 39.2286H28.1134C26.2022 39.2286 24.7077 38.7639 23.6297 37.8344C22.5518 36.9049 22.0129 35.7298 22.0129 34.3092C22.0129 32.8916 22.634 31.7181 23.8763 30.7886C25.1148 29.8592 26.8539 29.3944 29.0939 29.3944C30.5884 29.3944 31.9817 29.5607 33.2737 29.8934C34.5656 30.2291 35.6416 30.7 36.5017 31.3062L35.7162 31.8192C34.9517 31.3093 33.9904 30.9145 32.8322 30.6348C31.674 30.355 30.4279 30.2151 29.0939 30.2151C27.1253 30.2151 25.6212 30.5975 24.5815 31.3622C23.5418 32.13 23.022 33.1123 23.022 34.3092C23.022 35.5029 23.4597 36.4852 24.335 37.2562C25.2141 38.024 26.4736 38.4079 28.1134 38.4079ZM28.1134 40.0493H29.6558C30.3744 40.0493 30.8923 40.2016 31.2096 40.5062C31.5268 40.8078 31.6855 41.2026 31.6855 41.6906C31.6855 42.7818 30.6821 43.3273 28.6753 43.3273C26.7794 43.3273 25.3556 43.1004 24.4038 42.6465L25.218 42.1429C25.8716 42.3854 27.024 42.5067 28.6753 42.5067C29.478 42.5067 30.017 42.4352 30.2922 42.2922C30.5674 42.1492 30.705 41.9487 30.705 41.6906C30.705 41.4388 30.6286 41.2383 30.4757 41.0891C30.3228 40.943 30.0399 40.87 29.6271 40.87H28.1134C26.8253 40.87 25.6614 40.699 24.6217 40.357C23.582 40.0151 22.7277 39.5441 22.0587 38.9442C21.3936 38.3442 20.8834 37.6494 20.5279 36.8598C20.1724 36.0702 19.9946 35.22 19.9946 34.3092C19.9946 33.5818 20.1208 32.8916 20.3731 32.2388C20.6253 31.586 21.0057 30.986 21.514 30.4389C22.0224 29.8949 22.634 29.4224 23.3488 29.0214C24.0636 28.6235 24.9122 28.3126 25.8945 28.0888C26.8807 27.865 27.9471 27.7531 29.0939 27.7531C30.8942 27.7531 32.5799 27.9753 34.1509 28.4199C35.7181 28.8644 37.0234 29.4846 38.067 30.2804L37.2585 30.77C36.3067 30.0737 35.1161 29.5327 33.6865 29.1473C32.2607 28.7649 30.7299 28.5737 29.0939 28.5737C27.8172 28.5737 26.6628 28.7229 25.6308 29.0214C24.5987 29.3229 23.7502 29.7348 23.0851 30.2571C22.4161 30.7824 21.902 31.3902 21.5427 32.0803C21.1834 32.7704 21.0038 33.5134 21.0038 34.3092C21.0038 35.3817 21.2694 36.3469 21.8007 37.2049C22.332 38.0597 23.1443 38.7483 24.2375 39.2706C25.3307 39.7897 26.6227 40.0493 28.1134 40.0493ZM51.0421 36.7712H39.959V35.9505H51.0421V36.7712ZM51.0421 38.4079H39.959V37.5919H51.0421V38.4079ZM51.0421 40.0493H39.959V39.2286H51.0421V40.0493ZM58.6162 28.5737V47.4261H57.6071V28.5737H58.6162ZM56.5979 28.5737V47.4261H55.5888V28.5737H56.5979ZM54.5855 28.5737V47.4261H53.5763V28.5737H54.5855ZM60.6287 40.0493V43.3273H71.3505V44.148H60.6287V44.9687H71.3505V45.7847H60.6287V46.6054H71.3505V47.4261H59.6253V28.5737H71.3505V29.3944H60.6287V30.2151H71.3505V31.0311H60.6287V31.8518H71.3505V32.6725H60.6287V35.9505H66.1329V36.7712H60.6287V37.5919H66.1329V38.4079H60.6287V39.2286H66.1329V40.0493H60.6287ZM88.3334 36.678L87.5192 37.1816C86.7089 36.3609 85.6635 35.9505 84.383 35.9505C83.2745 35.9505 82.3246 36.2707 81.5334 36.9111C80.7459 37.5546 80.3522 38.3271 80.3522 39.2286C80.3522 40.1332 80.7459 40.9057 81.5334 41.5461C82.3246 42.1865 83.2745 42.5067 84.383 42.5067C85.0098 42.5067 85.5966 42.3979 86.1432 42.1802C86.686 41.9595 87.1485 41.6549 87.5307 41.2663L88.3162 41.8025C87.8499 42.2813 87.2708 42.6543 86.5789 42.9217C85.8909 43.1921 85.1589 43.3273 84.383 43.3273C82.9916 43.3273 81.8047 42.9279 80.8224 42.129C79.8362 41.3269 79.3431 40.3601 79.3431 39.2286C79.3431 38.0971 79.8362 37.1318 80.8224 36.3329C81.8047 35.5309 82.9916 35.1299 84.383 35.1299C85.1666 35.1299 85.9043 35.2682 86.5961 35.5449C87.288 35.8246 87.8671 36.2023 88.3334 36.678ZM89.8987 35.6568L89.1017 36.1557C88.5398 35.5775 87.8461 35.1252 87.0204 34.7988C86.1948 34.4724 85.3156 34.3092 84.383 34.3092C82.7126 34.3092 81.2868 34.7926 80.1057 35.7594C78.9246 36.723 78.334 37.8794 78.334 39.2286C78.334 40.5809 78.9246 41.7388 80.1057 42.7025C81.2868 43.6662 82.7126 44.148 84.383 44.148C85.3156 44.148 86.1986 43.9833 87.0319 43.6537C87.8613 43.3211 88.5551 42.8673 89.1132 42.2922L89.8872 42.8144C89.2336 43.4828 88.4251 44.0081 87.4619 44.3905C86.5025 44.776 85.4762 44.9687 84.383 44.9687C83.1063 44.9687 81.9252 44.7122 80.8396 44.1993C79.7579 43.6864 78.9016 42.99 78.2709 42.1103C77.6441 41.2306 77.3306 40.27 77.3306 39.2286C77.3306 38.1903 77.6441 37.2313 78.2709 36.3515C78.9016 35.4687 79.7579 34.7724 80.8396 34.2625C81.9252 33.7496 83.1063 33.4932 84.383 33.4932C85.4762 33.4932 86.5044 33.6843 87.4676 34.0667C88.4347 34.4491 89.245 34.9791 89.8987 35.6568ZM91.4812 34.6309L90.6956 35.1438C89.9388 34.376 89.01 33.7729 87.9091 33.3346C86.8083 32.8932 85.6329 32.6725 84.383 32.6725C83.2898 32.6725 82.2462 32.845 81.2524 33.1901C80.2586 33.5351 79.4005 34.0014 78.678 34.589C77.9556 35.1796 77.3822 35.879 76.958 36.6873C76.5337 37.4955 76.3215 38.3426 76.3215 39.2286C76.3215 40.1177 76.5337 40.9663 76.958 41.7746C77.3822 42.5828 77.9556 43.2807 78.678 43.8682C79.4005 44.4558 80.2586 44.9221 81.2524 45.2671C82.2462 45.6122 83.2898 45.7847 84.383 45.7847C85.6329 45.7847 86.8083 45.5656 87.9091 45.1272C89.01 44.6858 89.9388 44.0827 90.6956 43.318L91.4525 43.8496C90.6039 44.7076 89.5642 45.3821 88.3334 45.8733C87.0988 46.3614 85.782 46.6054 84.383 46.6054C83.1522 46.6054 81.9768 46.4096 80.8568 46.0179C79.7368 45.6293 78.7736 45.107 77.9671 44.4511C77.1605 43.7921 76.5165 43.0071 76.0348 42.0963C75.5532 41.1855 75.3124 40.2296 75.3124 39.2286C75.3124 38.2276 75.5532 37.2717 76.0348 36.3609C76.5165 35.45 77.1605 34.6667 77.9671 34.0107C78.7736 33.3548 79.7368 32.831 80.8568 32.4393C81.9768 32.0476 83.1522 31.8518 84.383 31.8518C85.7934 31.8518 87.116 32.0989 88.3506 32.5932C89.5891 33.0875 90.6326 33.7667 91.4812 34.6309ZM93.0464 33.6051L92.238 34.0947C91.2939 33.1465 90.1376 32.3989 88.7692 31.8518C87.4046 31.3047 85.9425 31.0311 84.383 31.0311C83.0222 31.0311 81.7187 31.2487 80.4726 31.6839C79.2265 32.116 78.1525 32.6973 77.2504 33.4279C76.3521 34.1615 75.6354 35.035 75.1003 36.0485C74.569 37.0619 74.3033 38.1219 74.3033 39.2286C74.3033 40.3384 74.569 41.4 75.1003 42.4134C75.6354 43.4237 76.3521 44.2957 77.2504 45.0293C78.1525 45.763 79.2265 46.3458 80.4726 46.7779C81.7187 47.21 83.0222 47.4261 84.383 47.4261C85.9425 47.4261 87.4046 47.1525 88.7692 46.6054C90.1376 46.0583 91.2939 45.3106 92.238 44.3625L93.035 44.8661C91.9991 45.9137 90.7281 46.7391 89.2221 47.3421C87.7123 47.9452 86.0992 48.2468 84.383 48.2468C82.8808 48.2468 81.4454 48.0074 80.077 47.5287C78.7124 47.0499 77.5351 46.408 76.5451 45.6029C75.5551 44.8008 74.7658 43.8434 74.1772 42.7305C73.5923 41.6176 73.2999 40.4503 73.2999 39.2286C73.2999 38.0069 73.5923 36.8396 74.1772 35.7267C74.7658 34.6169 75.5551 33.6595 76.5451 32.8543C77.5351 32.0492 78.7124 31.4073 80.077 30.9285C81.4454 30.4529 82.8808 30.2151 84.383 30.2151C86.0992 30.2151 87.7142 30.5166 89.2279 31.1197C90.7377 31.7228 92.0106 32.5512 93.0464 33.6051ZM102.656 36.9111C101.869 37.5546 101.475 38.3271 101.475 39.2286C101.475 40.1332 101.869 40.9057 102.656 41.5461C103.443 42.1865 104.393 42.5067 105.506 42.5067C106.614 42.5067 107.564 42.1865 108.355 41.5461C109.143 40.9057 109.536 40.1332 109.536 39.2286C109.536 38.3271 109.143 37.5546 108.355 36.9111C107.564 36.2707 106.614 35.9505 105.506 35.9505C104.393 35.9505 103.443 36.2707 102.656 36.9111ZM101.945 42.129C100.959 41.3269 100.466 40.3601 100.466 39.2286C100.466 38.0971 100.959 37.1318 101.945 36.3329C102.927 35.5309 104.114 35.1299 105.506 35.1299C106.897 35.1299 108.084 35.5309 109.066 36.3329C110.052 37.1318 110.545 38.0971 110.545 39.2286C110.545 40.3601 110.052 41.3269 109.066 42.129C108.084 42.9279 106.897 43.3273 105.506 43.3273C104.114 43.3273 102.927 42.9279 101.945 42.129ZM101.228 35.7594C100.047 36.723 99.4566 37.8794 99.4566 39.2286C99.4566 40.5809 100.047 41.7388 101.228 42.7025C102.409 43.6662 103.835 44.148 105.506 44.148C107.176 44.148 108.602 43.6662 109.783 42.7025C110.964 41.7388 111.554 40.5809 111.554 39.2286C111.554 37.8794 110.964 36.723 109.783 35.7594C108.602 34.7926 107.176 34.3092 105.506 34.3092C103.835 34.3092 102.409 34.7926 101.228 35.7594ZM99.3935 42.1103C98.7628 41.2306 98.4475 40.27 98.4475 39.2286C98.4475 38.1903 98.7628 37.2313 99.3935 36.3515C100.024 35.4687 100.88 34.7724 101.962 34.2625C103.044 33.7496 104.225 33.4932 105.506 33.4932C106.782 33.4932 107.963 33.7496 109.049 34.2625C110.131 34.7724 110.987 35.4687 111.618 36.3515C112.244 37.2313 112.558 38.1903 112.558 39.2286C112.558 40.27 112.244 41.2306 111.618 42.1103C110.987 42.99 110.131 43.6864 109.049 44.1993C107.963 44.7122 106.782 44.9687 105.506 44.9687C104.225 44.9687 103.044 44.7122 101.962 44.1993C100.88 43.6864 100.024 42.99 99.3935 42.1103ZM98.0805 36.6873C97.6562 37.4955 97.4441 38.3426 97.4441 39.2286C97.4441 40.1177 97.6562 40.9663 98.0805 41.7746C98.5048 42.5828 99.0782 43.2807 99.8006 43.8682C100.523 44.4558 101.381 44.9221 102.375 45.2671C103.369 45.6122 104.412 45.7847 105.506 45.7847C106.599 45.7847 107.642 45.6122 108.636 45.2671C109.63 44.9221 110.488 44.4558 111.21 43.8682C111.933 43.2807 112.506 42.5828 112.931 41.7746C113.355 40.9663 113.567 40.1177 113.567 39.2286C113.567 38.3426 113.355 37.4955 112.931 36.6873C112.506 35.879 111.933 35.1796 111.21 34.589C110.488 34.0014 109.63 33.5351 108.636 33.1901C107.642 32.845 106.599 32.6725 105.506 32.6725C104.412 32.6725 103.369 32.845 102.375 33.1901C101.381 33.5351 100.523 34.0014 99.8006 34.589C99.0782 35.1796 98.5048 35.879 98.0805 36.6873ZM97.1574 42.0963C96.6758 41.1855 96.435 40.2296 96.435 39.2286C96.435 38.2276 96.6758 37.2717 97.1574 36.3609C97.6352 35.45 98.2793 34.6667 99.0896 34.0107C99.8962 33.3548 100.859 32.831 101.979 32.4393C103.099 32.0476 104.275 31.8518 105.506 31.8518C106.736 31.8518 107.912 32.0476 109.032 32.4393C110.152 32.831 111.115 33.3548 111.921 34.0107C112.732 34.6667 113.376 35.45 113.854 36.3609C114.335 37.2717 114.576 38.2276 114.576 39.2286C114.576 40.2296 114.335 41.1855 113.854 42.0963C113.376 43.0071 112.732 43.7921 111.921 44.4511C111.115 45.107 110.152 45.6293 109.032 46.0179C107.912 46.4096 106.736 46.6054 105.506 46.6054C104.275 46.6054 103.099 46.4096 101.979 46.0179C100.859 45.6293 99.8962 45.107 99.0896 44.4511C98.2793 43.7921 97.6352 43.0071 97.1574 42.0963ZM96.2228 36.0485C95.6915 37.0619 95.4259 38.1219 95.4259 39.2286C95.4259 40.3384 95.6915 41.4 96.2228 42.4134C96.7542 43.4237 97.4709 44.2957 98.3729 45.0293C99.275 45.763 100.349 46.3458 101.595 46.7779C102.838 47.21 104.141 47.4261 105.506 47.4261C106.866 47.4261 108.17 47.21 109.416 46.7779C110.662 46.3458 111.736 45.763 112.638 45.0293C113.536 44.2957 114.253 43.4237 114.788 42.4134C115.32 41.4 115.585 40.3384 115.585 39.2286C115.585 38.1219 115.32 37.0619 114.788 36.0485C114.253 35.035 113.536 34.1615 112.638 33.4279C111.736 32.6973 110.662 32.116 109.416 31.6839C108.17 31.2487 106.866 31.0311 105.506 31.0311C104.141 31.0311 102.838 31.2487 101.595 31.6839C100.349 32.116 99.275 32.6973 98.3729 33.4279C97.4709 34.1615 96.7542 35.035 96.2228 36.0485ZM95.2997 42.7305C94.7111 41.6176 94.4168 40.4503 94.4168 39.2286C94.4168 38.0069 94.7111 36.8396 95.2997 35.7267C95.8884 34.6169 96.6777 33.6595 97.6677 32.8543C98.6577 32.0492 99.835 31.4073 101.2 30.9285C102.568 30.4529 104.003 30.2151 105.506 30.2151C107.008 30.2151 108.443 30.4529 109.811 30.9285C111.176 31.4073 112.353 32.0492 113.343 32.8543C114.333 33.6595 115.123 34.6169 115.711 35.7267C116.3 36.8396 116.594 38.0069 116.594 39.2286C116.594 40.4503 116.3 41.6176 115.711 42.7305C115.123 43.8434 114.333 44.8008 113.343 45.6029C112.353 46.408 111.176 47.0499 109.811 47.5287C108.443 48.0074 107.008 48.2468 105.506 48.2468C104.003 48.2468 102.568 48.0074 101.2 47.5287C99.835 47.0499 98.6577 46.408 97.6677 45.6029C96.6777 44.8008 95.8884 43.8434 95.2997 42.7305ZM131.72 37.1816V47.4261H130.716V37.1816C130.716 36.9608 130.67 36.7728 130.579 36.6173C130.491 36.4619 130.378 36.3422 130.24 36.2583C130.099 36.1744 129.913 36.1075 129.684 36.0578C129.455 36.008 129.233 35.9785 129.019 35.9692C128.805 35.9568 128.539 35.9505 128.222 35.9505C127.905 35.9505 127.639 35.9568 127.425 35.9692C127.211 35.9785 126.989 36.008 126.76 36.0578C126.531 36.1075 126.347 36.1744 126.21 36.2583C126.068 36.3422 125.953 36.4619 125.866 36.6173C125.778 36.7728 125.734 36.9608 125.734 37.1816V47.4261H124.725V37.1816C124.725 35.8138 125.89 35.1299 128.222 35.1299C130.554 35.1299 131.72 35.8138 131.72 37.1816ZM133.738 37.1816V47.4261H132.729V37.1816C132.729 36.2179 132.312 35.4982 131.479 35.0226C130.642 34.547 129.556 34.3092 128.222 34.3092C126.888 34.3092 125.802 34.547 124.965 35.0226C124.132 35.4982 123.715 36.2179 123.715 37.1816V47.4261H122.706V37.1816C122.706 36.3826 122.959 35.6987 123.463 35.1299C123.968 34.561 124.627 34.146 125.441 33.8848C126.259 33.6237 127.186 33.4932 128.222 33.4932C129.258 33.4932 130.185 33.6237 131.003 33.8848C131.817 34.146 132.476 34.561 132.981 35.1299C133.486 35.6987 133.738 36.3826 133.738 37.1816ZM135.756 37.1816V47.4261H134.747V37.1816C134.747 36.4666 134.577 35.8215 134.237 35.2464C133.896 34.6682 133.426 34.1942 132.826 33.8242C132.23 33.4512 131.54 33.1652 130.756 32.9662C129.973 32.7704 129.128 32.6725 128.222 32.6725C127.316 32.6725 126.471 32.7704 125.688 32.9662C124.904 33.1652 124.214 33.4512 123.618 33.8242C123.022 34.1942 122.553 34.6682 122.213 35.2464C121.869 35.8215 121.697 36.4666 121.697 37.1816V47.4261H120.694V37.1816C120.694 36.3547 120.891 35.6024 121.284 34.9247C121.682 34.2501 122.221 33.6906 122.901 33.246C123.585 32.8015 124.384 32.458 125.298 32.2155C126.211 31.973 127.186 31.8518 128.222 31.8518C129.258 31.8518 130.233 31.973 131.146 32.2155C132.064 32.458 132.862 32.8015 133.543 33.246C134.223 33.6906 134.762 34.2501 135.16 34.9247C135.557 35.6024 135.756 36.3547 135.756 37.1816ZM137.769 37.1816V47.4261H136.759V37.1816C136.759 36.3547 136.534 35.5604 136.083 34.7988C135.632 34.0403 135.022 33.3859 134.254 32.8357C133.489 32.2854 132.58 31.8471 131.525 31.5207C130.47 31.1943 129.369 31.0311 128.222 31.0311C126.643 31.0311 125.214 31.272 123.933 31.7539C122.649 32.2357 121.619 32.9491 120.843 33.8942C120.071 34.8392 119.685 35.935 119.685 37.1816V47.4261H118.676V37.1816C118.676 36.1339 118.928 35.1703 119.432 34.2905C119.937 33.4077 120.621 32.6709 121.485 32.0803C122.345 31.4896 123.356 31.0311 124.518 30.7047C125.68 30.3783 126.915 30.2151 128.222 30.2151C130.538 30.2151 132.545 30.6892 134.242 31.6373C135.939 30.6892 137.946 30.2151 140.263 30.2151C141.57 30.2151 142.803 30.3783 143.961 30.7047C145.123 31.0311 146.136 31.4896 147 32.0803C147.863 32.6709 148.548 33.4077 149.052 34.2905C149.557 35.1703 149.809 36.1339 149.809 37.1816V47.4261H148.8V37.1816C148.8 35.9443 148.412 34.8532 147.636 33.9082C146.864 32.9631 145.836 32.2481 144.551 31.7632C143.267 31.2751 141.837 31.0311 140.263 31.0311C138.283 31.0311 136.555 31.4119 135.079 32.1735C135.297 32.3228 135.536 32.5186 135.796 32.7611C137.073 32.1549 138.562 31.8518 140.263 31.8518C141.298 31.8518 142.273 31.973 143.187 32.2155C144.1 32.458 144.897 32.8015 145.578 33.246C146.262 33.6906 146.801 34.2501 147.195 34.9247C147.592 35.6024 147.791 36.3547 147.791 37.1816V47.4261H146.782V37.1816C146.782 36.4666 146.612 35.8215 146.271 35.2464C145.931 34.6682 145.463 34.1942 144.867 33.8242C144.27 33.4512 143.58 33.1652 142.797 32.9662C142.013 32.7704 141.169 32.6725 140.263 32.6725C138.78 32.6725 137.495 32.9196 136.41 33.4139C136.578 33.6253 136.746 33.86 136.914 34.118C137.828 33.7014 138.944 33.4932 140.263 33.4932C141.298 33.4932 142.224 33.6237 143.038 33.8848C143.856 34.146 144.517 34.561 145.021 35.1299C145.526 35.6987 145.778 36.3826 145.778 37.1816V47.4261H144.769V37.1816C144.769 36.2179 144.351 35.4982 143.514 35.0226C142.68 34.547 141.597 34.3092 140.263 34.3092C139.047 34.3092 138.063 34.4926 137.31 34.8594C137.428 35.1454 137.52 35.4174 137.585 35.6754C138.174 35.3117 139.066 35.1299 140.263 35.1299C142.594 35.1299 143.76 35.8138 143.76 37.1816V47.4261H142.751V37.1816C142.751 36.9608 142.707 36.7728 142.619 36.6173C142.531 36.4619 142.417 36.3422 142.275 36.2583C142.138 36.1744 141.954 36.1075 141.725 36.0578C141.495 36.008 141.274 35.9785 141.06 35.9692C140.846 35.9568 140.58 35.9505 140.263 35.9505C139.945 35.9505 139.68 35.9568 139.466 35.9692C139.248 35.9785 139.026 36.008 138.801 36.0578C138.571 36.1075 138.386 36.1744 138.244 36.2583C138.107 36.3422 137.992 36.4619 137.9 36.6173C137.812 36.7728 137.769 36.9608 137.769 37.1816Z" fill="url(#paint1_linear_3_32)"/>
</g>
</g>
</g>
</g>
</g>
</g>
</g>
</g>
</g>
<defs>
<linearGradient id="paint0_linear_3_32" x1="75" y1="-0.031189" x2="75" y2="76.031" gradientUnits="userSpaceOnUse">
<stop offset="0.594703" stop-color="#3AAEEF"/>
<stop offset="1" stop-color="#5F53F8" stop-opacity="0"/>
</linearGradient>
<linearGradient id="paint1_linear_3_32" x1="74.9999" y1="27.7531" x2="74.9999" y2="48.2468" gradientUnits="userSpaceOnUse">
<stop offset="0.594703" stop-color="#3AAEEF"/>
<stop offset="1" stop-color="#5F53F8" stop-opacity="0"/>
</linearGradient>
<clipPath id="clip0_3_32">
<rect width="150" height="76" fill="white"/>
</clipPath>
<clipPath id="clip1_3_32">
<rect width="149.641" height="76.0615" fill="white" transform="translate(0.179443 -0.0308838)"/>
</clipPath>
<clipPath id="clip2_3_32">
<rect width="149.641" height="76.0615" fill="white" transform="translate(0.179443 -0.0308838)"/>
</clipPath>
<clipPath id="clip3_3_32">
<rect width="149.641" height="20.4937" fill="white" transform="translate(0.179443 27.7531)"/>
</clipPath>
<clipPath id="clip4_3_32">
<rect width="149.641" height="20.4937" fill="white" transform="translate(0.179443 27.7531)"/>
</clipPath>
<clipPath id="clip5_3_32">
<rect width="149.641" height="20.4937" fill="white" transform="translate(0.179443 27.7531)"/>
</clipPath>
<clipPath id="clip6_3_32">
<rect width="149.641" height="20.4937" fill="white" transform="translate(0.179443 27.7531)"/>
</clipPath>
<clipPath id="clip7_3_32">
<rect width="149.641" height="20.4937" fill="white" transform="translate(0.179443 27.7531)"/>
</clipPath>
<clipPath id="clip8_3_32">
<rect width="149.641" height="20.4937" fill="white" transform="translate(0.179443 27.7531)"/>
</clipPath>
</defs>
</svg>
